<?xml version="1.0" encoding="UTF-8" standalone="no"?>
<svg width="136px" height="40px" viewBox="0 0 136 40" version="1.1" xmlns="http://www.w3.org/2000/svg" xmlns:xlink="http://www.w3.org/1999/xlink" xmlns:sketch="http://www.bohemiancoding.com/sketch/ns">
    <!-- Generator: Sketch 3.3.2 (12043) - http://www.bohemiancoding.com/sketch -->
    <title>logo</title>
    <desc>Created with Sketch.</desc>
    <defs></defs>
    <g id="Page-1" stroke="none" stroke-width="1" fill="none" fill-rule="evenodd" sketch:type="MSPage">
        <g id="home" sketch:type="MSArtboardGroup" transform="translate(-147.000000, -29.000000)" fill="#2F75D6">
            <path d="M154.033442,35.1365794 C152.936126,35.1365794 151.513445,36.2995955 150.674267,37.0736111 C148.829156,38.710585 147.157946,41.7203454 147.157946,44.1360888 C147.157946,47.5688591 150.079089,48.8646713 150.817887,48.8646713 C151.061443,48.8646713 151.269048,48.739054 151.269048,48.4086965 C151.269048,48.1497909 151.104624,47.9343304 150.941233,47.7129276 C150.264737,46.6792862 150.047378,45.6929314 150.047378,44.3623896 C150.047378,41.5884257 151.327448,39.0458525 152.38933,37.8825363 C152.585032,37.6720217 153.027569,37.2171633 153.159851,37.2171633 C153.291196,37.2171633 153.323759,37.3239932 153.323759,37.6545549 L153.200401,55.8106314 C153.200401,58.6487844 152.380886,59.7764587 152.380886,60.4446407 C152.380886,60.7382519 152.507931,60.8144818 152.750934,60.8144818 C153.90098,60.8144818 155.047062,59.4136524 155.371706,58.9027801 C156.378528,57.1648825 156.625471,55.8078943 156.625471,51.8943475 L156.625471,36.6379002 C156.625471,36.2249022 156.509525,36.0465723 156.116871,35.7918324 C155.543133,35.4275015 154.885424,35.1365794 154.033442,35.1365794 L154.033442,35.1365794 Z M186.913793,35.1872393 C186.372921,35.1872393 186.141716,35.46971 186.116243,36.3440609 L185.996273,39.9648009 L182.828039,39.8550299 C182.63596,39.8501079 182.548817,39.9107677 182.464749,40.079638 C182.195651,40.5840278 182.054145,40.9790187 182.054145,41.6366966 C182.054145,42.1723827 182.297217,42.2294531 182.51375,42.2294531 L185.810404,42.3240262 L185.800266,49.241271 C185.800266,50.7083543 184.873992,52.6116888 183.230195,54.1944615 C183.230195,54.1944615 183.371486,53.7164701 183.363684,53.2149734 C183.363684,51.7956808 182.449485,50.5095324 181.23125,49.5992994 L178.257334,47.3633505 C178.880754,46.6425758 179.93692,45.2129832 179.93692,44.0060538 C179.93692,43.0702748 179.348093,42.6769766 178.250575,42.6769766 C176.701355,42.6769766 174.904924,44.0950927 174.904924,46.1980895 C174.904924,46.9646381 175.246121,47.6547048 175.76499,48.1824077 C175.048773,49.5407764 174.035141,51.3278693 173.282781,52.6002483 C172.714281,53.5747545 171.752766,55.067564 171.184145,55.067564 C170.76467,55.067564 170.57077,54.4079773 170.57077,51.8740835 C170.57077,49.7688059 170.720408,47.4800002 170.795504,45.2827665 C170.795504,44.779181 170.712673,44.3145028 170.058783,43.8591282 C169.457059,43.4737651 168.713792,42.9353659 167.948316,42.9353659 C166.246501,42.9353659 165.08699,44.5005518 164.291762,46.0308999 C163.468896,47.6169139 163.023848,48.9534221 162.395891,50.8929027 L162.465161,44.2188373 C162.486565,43.7430307 162.366331,43.5582542 161.98528,43.3964067 C161.491034,43.1868526 160.763526,42.9454979 160.118141,42.9454979 C159.578768,42.9454979 159.513209,43.177717 159.513209,43.7442912 L159.440564,51.7524878 L159.432156,54.8412632 C159.432156,57.6260674 159.781088,58.0904815 161.434485,58.0904815 C162.349839,58.0904815 162.643194,57.9830874 162.661223,57.2224451 C162.686255,56.7193157 162.926964,55.5008379 163.25263,54.2789027 C164.20492,50.671764 165.333513,47.818593 167.279243,45.6441683 C167.482225,45.4332335 167.638962,45.5087071 167.607047,45.8079845 C167.607047,45.8079845 167.299519,50.689699 167.299519,52.6863821 C167.299519,56.2376028 167.846267,58.0904815 169.614432,58.0904815 C171.349627,58.0904815 173.053712,55.8625277 173.984068,54.3582778 L176.968123,49.3696253 C178.90181,51.0164312 180.251258,52.2932639 180.251258,53.8465771 C180.251258,54.8119717 179.641705,55.7565862 178.713609,55.7565862 C177.553342,55.7565862 176.812091,54.5339067 176.028635,54.5339067 C175.378114,54.5339067 174.543368,55.7889269 174.543368,56.5013343 C174.543368,57.1741381 176.012093,58.1259434 178.647709,58.1259434 C182.538251,58.1259434 184.625287,55.4573448 185.878042,52.5023019 C186.117868,56.0095974 187.516023,58.0583929 189.69682,58.0583929 C191.127308,58.0583929 192.780563,56.2521045 193.532495,54.0458433 C193.532495,54.0458433 193.606817,54.6185278 194.177971,55.7920481 C194.964068,57.324401 196.159229,58.027997 197.643596,58.027997 C199.490035,58.027997 201.069283,56.9093263 202.033501,55.032102 C202.17965,56.4545639 203.374599,58.0212383 205.29636,58.0212383 C206.502708,58.0212383 207.602544,57.097464 208.324348,55.5758793 C208.324348,55.5758793 209.25951,58.0887888 211.964014,58.0887888 C213.483168,58.0887888 215.281982,56.6824853 215.711825,55.6603204 L215.759137,57.1464553 L211.746041,60.8448777 C210.580906,61.975301 209.341561,63.5997301 209.341561,65.3978313 C209.341561,67.6848722 211.502233,69 213.40366,69 C215.380081,69 216.691556,67.7486052 217.409999,66.6998859 C218.314153,65.3430538 218.695879,62.7854988 218.695879,60.2858905 L218.606323,56.5266642 C221.310891,53.5553669 223.42752,49.4484122 224.369975,46.5426006 L226.422991,46.4885554 C226.82064,46.461893 226.801014,46.6182663 226.745728,46.8499572 C226.384868,48.3738348 226.069838,50.0996316 226.069838,51.8183457 C226.069838,54.6578433 226.724358,55.8934398 227.664938,56.9032639 C228.482623,57.7493317 229.296142,58.0347436 230.152213,58.0347436 C231.826354,58.0347436 232.877268,56.6530137 233.210616,55.7819161 C233.996712,57.3142691 235.154704,58.027997 236.639068,58.027997 C238.485506,58.027997 240.064754,56.9093263 241.028973,55.032102 C241.175121,56.4545639 242.370069,58.0212383 244.291832,58.0212383 C245.727587,58.0212383 246.560162,57.1930935 247.215056,55.6332978 C247.228462,56.1351186 247.24776,56.6700004 247.262368,57.1717852 C247.279555,57.431327 247.487204,57.5955154 247.672971,57.6632219 C248.283281,57.8939644 248.81898,58.0094137 249.300177,58.0094137 C250.55521,58.0094137 250.827688,57.7517807 250.827688,56.9319791 C250.827688,55.5796848 250.867297,53.4428348 251.251809,51.7271579 C251.660057,50.0193801 252.275919,48.0856018 253.125713,46.7401861 C253.202158,46.6011716 253.389834,46.6376059 253.397759,46.8060559 C253.519769,49.6847849 253.712555,54.55776 254.469045,55.8190707 C254.8425,56.4206986 255.419823,56.8593627 256.28381,56.8593627 C256.68912,56.8593627 257.185549,56.6866269 257.312852,56.5790167 C257.441634,56.4786814 257.506572,56.3673137 257.498722,56.1601965 C257.498722,52.4802733 258.646793,48.9177081 259.796748,46.5223367 C259.828214,46.4513528 259.917824,46.4457466 259.915028,46.5392273 L259.850818,49.1906111 C259.850818,53.545523 260.164947,56.296822 262.341474,57.6193087 C262.674648,57.8041332 263.142931,57.9824031 263.742255,57.9824031 C264.85583,57.9824031 265.865654,57.3607513 266.364708,56.3611673 C266.771336,55.5843546 267.15212,54.0891562 267.15212,53.241984 C267.15212,52.9140514 267.155975,52.3807062 266.618167,52.3807062 C266.323273,52.3807062 266.146186,52.5977874 266.075765,52.9261881 C265.904363,53.6373711 265.763654,54.2475344 265.49788,54.9510343 C265.243592,55.6224576 264.864192,56.0132828 264.414765,56.0132828 C263.886366,56.0132828 263.618456,55.5977639 263.46514,55.3411512 C262.790803,54.3136443 262.736869,51.9530145 262.736869,49.9826457 L262.899082,44.9112448 C262.899082,44.4917043 262.723857,43.9895834 262.076187,43.6193222 C261.641341,43.3691681 260.541474,42.8982114 259.867716,42.8982114 C259.242906,42.8982114 258.940521,43.2520861 258.715323,43.7713138 C258.292413,44.7037915 256.879132,48.361626 256.500095,51.3353602 C256.486525,51.413775 256.388939,51.4302935 256.381813,51.3303183 C256.184885,49.2273455 256.083755,46.6935118 256.086111,44.9838853 C256.086111,44.4671787 255.959618,43.7282649 254.862751,43.2495051 C254.329842,43.0285105 253.888698,42.8931694 253.350447,42.8931694 C252.682202,42.8931694 252.538692,43.2199735 252.299438,43.6531274 C251.542566,45.0506075 251.019195,46.8732823 250.234595,49.1720518 L250.246426,43.9115047 C250.246426,43.6655163 250.095591,43.3429618 249.663471,43.2562638 C248.592016,43.0102753 248.095476,42.8982354 247.672975,42.8982354 C247.365527,42.8982354 247.196472,43.1433355 247.196472,43.4082554 L247.139021,52.3773569 C246.931815,53.4755716 246.091825,56.0960553 244.900136,56.0960553 C243.922125,56.0960553 243.46556,55.1056669 243.46556,50.9655432 L243.642981,44.2374446 C243.642981,43.8124179 243.363746,43.6337398 242.956952,43.4538493 C242.375305,43.2229027 241.912446,43.1312948 241.321299,43.1312948 C240.579281,43.1312948 240.324542,43.486286 240.474747,44.3387643 C239.658976,43.2359038 238.843575,42.6263407 237.402827,42.6263407 C234.510533,42.6263407 232.330273,46.1035764 232.330273,51.1563701 C232.301789,52.5733098 232.644562,53.9817021 232.644562,53.9817021 C232.382841,55.1576593 231.767585,56.1163193 230.917663,56.1163193 C229.845395,56.1163193 229.162038,54.601193 229.162038,51.9754273 C229.162038,49.3418944 230.165735,46.3715936 230.165735,45.5665098 C230.165735,44.6304667 229.552102,44.0381664 228.465872,44.0381664 C227.921555,44.0381664 225.903244,44.4957979 224.868448,44.6461209 C224.868448,44.6461209 224.985007,44.1536517 224.976591,43.7662718 C224.976591,42.8431097 224.54318,42.264939 223.467666,42.264939 C222.153022,42.264939 221.188227,43.2030229 221.188227,44.8031784 C221.188227,45.5214081 221.601994,46.1854726 222.14968,46.5426246 C221.438692,49.5062749 220.282681,51.7102193 218.579292,54.1725409 L218.722918,44.2019827 C218.722918,43.8778075 218.636629,43.6765486 218.001405,43.4302 C217.665503,43.2851831 217.118219,43.1177775 216.428272,43.1177775 C215.428371,43.1177775 215.494297,43.8315174 215.547925,44.3657869 C215.090417,43.5549889 214.088659,42.5925715 212.543594,42.5925715 C208.332703,42.5925715 207.039774,49.0101924 207.673806,53.5679478 C207.673806,54.1236338 207.131059,56.0960553 205.904665,56.0960553 C204.926658,56.0960553 204.470088,55.1056669 204.470088,50.9655432 L204.649199,44.2374446 C204.649199,43.8124179 204.368276,43.6337398 203.961481,43.4538493 C203.379832,43.2229027 202.918661,43.1312948 202.327517,43.1312948 C201.585498,43.1312948 201.330761,43.486286 201.480965,44.3387643 C200.665193,43.2359038 199.848104,42.6263407 198.407356,42.6263407 C195.51506,42.6263407 193.306076,45.8063519 193.306076,50.8591455 C193.306076,52.788014 191.644382,55.7312802 190.479166,55.7312802 C189.831845,55.7312802 189.142594,54.5437025 189.142594,51.5093325 C189.145909,49.4410413 189.428158,42.400052 189.428158,42.400052 L193.495326,42.3341942 C193.689514,42.3323934 193.801849,42.1202823 193.873824,41.989683 C194.060637,41.6109945 194.150938,41.3587636 194.150938,40.9054898 C194.150938,40.4964894 194.069068,40.3471869 193.544328,40.3177994 L189.490677,40.074608 L189.663029,36.3001837 C189.675017,36.0617462 189.531331,35.9065013 189.271012,35.7901757 C188.48562,35.4838036 187.523357,35.1872753 186.913846,35.1872753 L186.913793,35.1872393 Z M199.223439,45.0767417 C200.307854,45.0767417 201.408254,46.0653294 201.408254,49.5722768 C201.408254,53.9878485 199.798668,56.0419861 198.561068,56.0419861 C197.400727,56.0419861 196.51988,54.4052282 196.51988,51.1901273 C196.51988,47.9402487 197.380015,45.0767417 199.223439,45.0767417 L199.223439,45.0767417 Z M238.276362,45.0767417 C239.360776,45.0767417 240.461177,46.0653294 240.461177,49.5722768 C240.461177,53.9878485 238.851589,56.0419861 237.61399,56.0419861 C236.453649,56.0419861 235.572802,54.4052282 235.572802,51.1901273 C235.572802,47.9402487 236.432938,45.0767417 238.276362,45.0767417 L238.276362,45.0767417 Z M213.506685,45.0970057 C214.921924,45.0970057 215.547873,46.5547254 215.547873,49.381438 C215.547873,53.6427132 214.280563,56.0690087 212.741239,56.0690087 C211.758561,56.0690087 210.628702,54.4564523 210.688223,51.2847004 C210.688223,49.256529 211.349874,45.0970057 213.506685,45.0970057 L213.506685,45.0970057 Z M215.902714,59.3519962 L215.902714,61.0306386 C215.902714,66.6003549 214.4177,67.5510317 213.2245,67.5510317 C212.772559,67.5510317 211.664884,67.209918 211.664884,65.8318495 C211.664884,63.9056941 213.679831,61.7144387 214.305925,61.0373972 L215.902714,59.3519962 L215.902714,59.3519962 Z M274,47 C278.970563,47 283,42.9705627 283,38 C283,33.0294373 278.970563,29 274,29 C269.029437,29 265,33.0294373 265,38 C265,42.9705627 269.029437,47 274,47 Z M271.286,40.869 C271,40.96 271.572,41.987 271.78,41.987 C272.859,41.987 275.277,41.467 275.537,41.831 C275.732,41.675 275.42,40.492 275.108,40.492 C274.536,40.492 273.847,40.609 273.236,40.713 C274.679,39.504 276.356,37.372 276.343,36.423 C276.356,35.877 276.109,35.37 275.706,35.058 C275.29,34.551 274.9,34.46 274.445,34.46 C273.314,34.46 271.949,35.76 271.949,36.306 C271.949,36.618 272.378,37.424 272.586,37.268 C272.768,36.397 275.238,34.694 275.29,35.838 C275.342,36.748 273.002,39.738 271.286,40.869 Z" id="logo" sketch:type="MSShapeGroup"></path>
        </g>
    </g>
</svg>